<svg xmlns="http://www.w3.org/2000/svg" viewBox="0 0 188.04 92.23"><defs><style>.cls-1{fill:#fff;}.cls-2{fill:#e30613;}</style></defs><g id="Capa_2" data-name="Capa 2"><g id="Capa_1-2" data-name="Capa 1"><path class="cls-1" d="M87.07.21H5a5,5,0,0,0-5,5V87.28a5,5,0,0,0,5,5H87.07a5,5,0,0,0,5-5V5.16A5,5,0,0,0,87.07.21ZM89.9,87.28a2.83,2.83,0,0,1-2.83,2.83H5a2.83,2.83,0,0,1-2.83-2.83V5.16A2.83,2.83,0,0,1,5,2.33H87.07A2.83,2.83,0,0,1,89.9,5.16Z"/><rect class="cls-2" x="2.13" y="2.33" width="87.77" height="87.78" rx="2.83"/><path class="cls-1" d="M183.09,0H101a5,5,0,0,0-5,5V87.07a5,5,0,0,0,5,5h82.12a5,5,0,0,0,4.95-5V5A5,5,0,0,0,183.09,0Zm2.83,87.07a2.83,2.83,0,0,1-2.83,2.83H101a2.83,2.83,0,0,1-2.83-2.83V5A2.83,2.83,0,0,1,101,2.13h82.12A2.83,2.83,0,0,1,185.92,5Z"/><rect class="cls-2" x="98.14" y="2.13" width="87.78" height="87.77" rx="2.83"/><g id="Layer_1"><path class="cls-1" d="M157.14,52.22A4.41,4.41,0,0,0,158.53,49a4.36,4.36,0,0,0-1.66-3.44A4.36,4.36,0,0,0,158,42.63v-4.4h-2.6a8.54,8.54,0,0,0,1.83-9.81c1.81-6.58-2-10.67-8.26-9.34a9.58,9.58,0,0,0-12.07.13c-6.23-1-9.74,3.43-7.86,9.72a7.67,7.67,0,0,0,2.36,9.3h-3v4.38a4.36,4.36,0,0,0,1.39,3.18,4.34,4.34,0,0,0-1.37,2.85h-9.1V68h9.08a4.38,4.38,0,0,0,4.37,4.53h19.07a4.39,4.39,0,0,0,4.37-4.38,4.32,4.32,0,0,0-.62-2.25,4.4,4.4,0,0,0,1.57-7.34,4.35,4.35,0,0,0,1.37-3.2A4.54,4.54,0,0,0,157.14,52.22Zm-1.55-11.58v2a2,2,0,0,1-2,2h-6.91v-2a2,2,0,0,1,2-2ZM153.47,37c-1.26,1-3.2,1.57-5.88,1.13-.33-.07-.66-.11-1-.2,0-.44,0-.86,0-1.3,3.89-1.48,5.72-6.37,3.51-10.63C155.64,27.05,157.23,33.81,153.47,37Zm-15-4.09a5.28,5.28,0,0,1,1.08-7.09c.6,4.66,2.76,7.49,6.83,8.07C143.79,36.36,140,35.1,138.45,32.86ZM144.3,38v6.59h-.7a1.43,1.43,0,0,1-1.48-1.42V39.12A23.24,23.24,0,0,0,144.3,38ZM142,25.57a1.14,1.14,0,1,1,1.15,1.15A1.14,1.14,0,0,1,142,25.57Zm1.24,3.49a3.47,3.47,0,0,0,3.32-3.18c1.92,1.15,2.65,3,1.76,5.9A5.86,5.86,0,0,1,143.24,29.06Zm12.55-2.71A11.28,11.28,0,0,0,147.2,23C149.69,18.75,157,20.78,155.79,26.35Zm-9.06-6.08a5.68,5.68,0,0,0-1.63,2.1,8.79,8.79,0,0,0-8.73,3A6.53,6.53,0,0,1,146.73,20.27ZM135.2,21.35a8.87,8.87,0,0,0-.13,8.44C128.77,29.53,129.59,20.91,135.2,21.35Zm-4.6,9.06a6.43,6.43,0,0,0,4.78,1.48A6.94,6.94,0,0,0,140.83,37,6.48,6.48,0,0,1,130.6,30.41Zm.16,10.23h7a2,2,0,0,1,2,2v2h-6.94a2,2,0,0,1-2-2Zm0,8.4a2,2,0,0,1,2-2h11.82a2,2,0,0,1,2,2v8.39h-2.45a2,2,0,0,1-2-2V51.09l-2.39,0v4.35a2,2,0,0,1-2,2h-5a2,2,0,0,1-2-2V49Zm8.62,19.15a4.24,4.24,0,0,0,.48,2h-7.11a2,2,0,0,1-2-2.12V65.65h-9.1V51.07h6.69v4.35h0a4.43,4.43,0,0,0,4.4,4.4h5a4.35,4.35,0,0,0,3-1.15,4.34,4.34,0,0,0,.05,6.34A4.32,4.32,0,0,0,139.38,68.19Zm12.43,2h-8a2,2,0,0,1-2-2,2,2,0,0,1,2-2h8a2,2,0,0,1,0,4Zm2.32-6.39H143.77a2,2,0,1,1,0-4h10.36a2,2,0,0,1,0,4ZM149,57.43v-4h5.14a2,2,0,0,1,0,4Zm5.14-6.4H149V49a4.45,4.45,0,0,0-.49-2h5.63a2,2,0,0,1,0,4Z"/></g><path class="cls-1" d="M62.93,55.35a9.63,9.63,0,0,0-.23-1.79,8.15,8.15,0,0,0-8.82-6.25c-4.08.45-5.42,3.75-6,3.75s-1.91-3.3-6-3.75a8.15,8.15,0,0,0-8.82,6.25,9.63,9.63,0,0,0-.23,1.79c-.2,6.94,13.74,19,15,19s15.24-12.1,15-19Z"/><path class="cls-1" d="M23.41,47.26a1.94,1.94,0,0,0-1.64,1.17l-10,24.79c-.26.64.05,1.17.69,1.17h5.11a2,2,0,0,0,1.64-1.17l10-24.79c.27-.65-.05-1.17-.69-1.17Z"/><path class="cls-1" d="M21.46,26c0,2.16-.69,3-2.31,3H17.26v-6h1.93c1.65,0,2.27.82,2.27,3Zm5.72-.12c0-5.59-3.15-7.5-7.44-7.5H11.62V42.46h5.64V33.71h2.07c4.61,0,7.85-2.12,7.85-7.8Z"/><path class="cls-1" d="M44.3,35.74c0-4-1.81-6-6.64-8.1-2.44-1.1-3-1.79-3-3.1a1.64,1.64,0,0,1,1.7-1.71c1.53,0,2.11.62,3.77,2.59l4-3.59C42,19.36,40.2,18,36.5,18,31.9,18,29,21.11,29,25s1.75,5.62,6.55,7.71c2.66,1.19,3.07,2,3.07,3.35A1.82,1.82,0,0,1,36.6,38c-1.18,0-2.48-1-4.07-2.89l-4,3.53c2,2.64,4.16,4.19,7.92,4.19,4.47,0,7.8-2.59,7.8-7.09Z"/><path class="cls-1" d="M57.38,30.44c0,5.85-.88,7.42-2.67,7.42S52,36.19,52,30.39s.84-7.45,2.67-7.45,2.72,1.72,2.72,7.5Zm5.9-.05c0-8.47-3.21-12.36-8.57-12.36s-8.65,4-8.65,12.41,3.18,12.39,8.54,12.39,8.68-4,8.68-12.44Z"/><polygon class="cls-1" points="80.4 42.46 80.4 37.53 71.81 37.53 71.81 32.3 77.27 32.3 77.27 27.45 71.81 27.45 71.81 23.32 80.18 23.32 80.18 18.41 66.1 18.41 66.1 42.46 80.4 42.46"/></g></g></svg>