<?xml version="1.0" encoding="utf-8"?>
<!-- Generator: Adobe Illustrator 22.0.0, SVG Export Plug-In . SVG Version: 6.00 Build 0)  -->
<svg version="1.1" id="Capa_1" xmlns="http://www.w3.org/2000/svg" xmlns:xlink="http://www.w3.org/1999/xlink" x="0px" y="0px"
	 viewBox="0 0 529.3 103.2" style="enable-background:new 0 0 529.3 103.2;" xml:space="preserve">
<style type="text/css">
	.st0{fill-rule:evenodd;clip-rule:evenodd;fill:#DA0100;}
	.st1{fill:#DA0100;}
</style>
<g>
	<path class="st0" d="M65.1,31.7c0-23.2-13.2-31.2-31.2-31.2H0v100.1h23.6V64.3h8.6C51.4,64.3,65.1,55.4,65.1,31.7 M41.2,32.3
		c0,9-3,12.6-9.9,12.6h-7.8V20h8.2C38.5,20,41.2,23.4,41.2,32.3"/>
	<path class="st0" d="M136.7,73.7c0-16.7-7.5-25-27.7-33.9c-10.2-4.4-12.8-7.4-12.8-12.7c0-3.7,2.6-7.1,7.2-7.1
		c6.3,0,8.8,2.6,15.7,10.7l16.7-14.9C127.3,5.6,119.6,0,104.1,0C84.8,0,72.9,12.9,72.9,29.2c0,15.7,7.3,23.3,27.3,32
		c11.4,5,12.9,8.4,12.9,14c0,5.4-3.6,8-8.6,8c-4.9,0-10.4-4.1-17.1-12.1L71,85.8c8.3,11,17.4,17.4,33.1,17.4
		C122.7,103.2,136.7,92.5,136.7,73.7"/>
	<path class="st0" d="M216.1,51.5c0-35.2-13.4-51.5-35.9-51.5c-22.6,0-36.1,16.4-36.1,51.7c0,35.3,13.2,51.4,35.8,51.4
		C202.6,103.2,216.1,86.8,216.1,51.5 M191.4,51.7c0,24.1-3.7,30.9-11.2,30.9c-7.5,0-11.3-7-11.3-31.2c0-24.1,3.6-30.9,11.2-30.9
		C187.5,20.6,191.4,27.6,191.4,51.7"/>
	<polygon class="st0" points="287.8,100.9 287.8,80.4 251.8,80.4 251.8,58.7 274.6,58.7 274.6,38.4 251.8,38.4 251.8,21.2 
		286.8,21.2 286.8,0.8 227.9,0.8 227.9,100.9 	"/>
	<path class="st1" d="M471.9,19.8c1.3-4.5,3.3-8.2,6.3-11.2C483,3.8,489,1.7,495.5,1c5.5-0.7,11-0.4,16.2,1.7
		c7.9,3.1,12.4,9.2,15.3,16.9c4.3,11.8,2.1,22.9-3.5,33.6c-5.9,11.3-14.5,20.4-24.1,28.6c-8.1,7-16.7,13.1-26,18.4
		c-0.9,0.5-1.6,0.8-2.6,0.2c-16.5-9.7-31.5-21.2-43.4-36.4c-5.7-7.2-10.2-15.1-12-24.3c-2.4-11.9,0.1-22.6,8.4-31.6
		c5.9-6.4,13.8-7.9,22.2-7.4c4.5,0.3,8.9,1.2,13,3.2C465.6,7.2,469.7,12.4,471.9,19.8"/>
	<polygon class="st1" points="371.5,0.5 313.2,100.8 342.3,100.8 400.6,0.5 	"/>
</g>
</svg>
