<svg version="1.1" id="Capa_1" xmlns="http://www.w3.org/2000/svg" xmlns:xlink="http://www.w3.org/1999/xlink" x="0px" y="0px" viewBox="0 0 1500 489.1" style="enable-background:new 0 0 1500 489.1;" xml:space="preserve">
<style type="text/css">
	.st0{fill:#FFFFFF;}
</style>
<path class="st0" d="M0,358h77c3.2,38,28.3,62,67.9,62c35.8,0,59.9-15,59.9-43.3c0-73.2-194-17.1-194-164.1
	c0-62,53.5-105.8,129.4-105.8c80.7,0,135.2,46.5,137.4,117.6H201c-2.7-29.4-25.1-48.6-60.9-48.6c-31.5,0-51.3,15-51.3,36.9
	c0,78,196.7,15,196.7,163c0,70-56.7,113.9-140.6,113.9C59.9,489.5,3.2,437.6,0,358z"></path>
<path class="st0" d="M570,485.2h-74.8v-37.4c-15,26.2-44.9,41.7-81.8,41.7c-60.9,0-100.5-43.8-100.5-105.8V215.8h74.8v151.3
	c0,32.6,20.8,56.1,51.8,56.1c32.6,0,55.6-25.1,55.6-59.9V215.8H570V485.2z"></path>
<path class="st0" d="M607.5,215.8h74.8v38c14.4-24.6,40.1-42.2,76.4-42.2c42.2,0,69.5,17.1,82.3,49.2c12.8-26.2,46.5-49.2,89.8-49.2
	c58.8,0,96.8,43.3,96.8,97.3v176.4h-74.3v-153c0-34.8-18.7-57.7-47.6-57.7c-31,0-50.8,23-50.8,57.7v152.9h-74.8V332.3
	c0-34.8-18.2-57.7-47-57.7c-31,0-50.8,23-50.8,57.7v152.9h-74.9L607.5,215.8L607.5,215.8z"></path>
<path class="st0" d="M1292.6,312v173.2h-73.8v-37.4c-9.1,25.1-39,41.7-75.9,41.7c-52.4,0-88.2-34.8-88.2-80.7
	c0-52.9,39.6-85,98.4-85h45.4c13.4,0,20.3-8.6,20.3-19.8c0-22.5-17.6-38-48.1-38c-32.6,0-49.2,20.3-50.2,42.8h-66.3
	c3.2-54,47-97.3,120.8-97.3C1242.9,211.5,1292.6,251.1,1292.6,312z M1218.8,374.6v-3.7h-54.5c-22.4,0-38.5,13.9-38.5,34.7
	c0,17.6,15,29.9,35.8,29.9C1198,435.5,1218.8,408.8,1218.8,374.6z"></path>
<path class="st0" d="M1456,277.8c-36.9,0-53.4,30.5-53.4,76.4v131h-74.9V215.8h74.8v44.9c14.4-33.7,34.7-44.9,67.3-44.9h30.5v62
	L1456,277.8L1456,277.8z"></path>
<rect class="st0" width="1500.4" height="65.3"></rect>
</svg>